<mxfile host="app.diagrams.net" modified="2024-04-15T13:45:12.977Z" agent="Mozilla/5.0 (Windows NT 10.0; Win64; x64) AppleWebKit/537.36 (KHTML, like Gecko) Chrome/123.0.0.0 Safari/537.36 Edg/123.0.0.0" version="24.2.2" etag="guFUupCiS-02S5SWYg6_" type="github">
  <diagram name="Page-1" id="rWECo9qB8roRDnFVRidj">
    <mxGraphModel>
      <root>
        <mxCell id="0" />
        <mxCell id="1" parent="0" />
      </root>
    </mxGraphModel>
  </diagram>
</mxfile>
